999
FreeCAD v0.19 24267 +99 (Git)
  0
SECTION
  2
HEADER
  9
$ACADVER
  1
AC1014
  9
$ACADMAINTVER
 70
     9
  9
$DWGCODEPAGE
  3
ANSI_1252
  9
$TEXTSTYLE
  7
STANDARD
  9
$DIMSTYLE
  2
STANDARD
  9
$DIMTXSTY
  7
STANDARD
  9
$CMLSTYLE
  2
STANDARD
  9
$PEXTMAX
 10
50
 20
50
 30
50
  9
$PEXTMIN
 10
0
 20
0
 30
0
  9
$HANDSEED
  5
FFFF
  0
ENDSEC
  0
SECTION
  2
CLASSES
  0
CLASS
  1
ACDBDICTIONARYWDFLT
  2
AcDbDictionaryWithDefault
  3
ObjectDBX Classes
 90
        0
280
     0
281
     0
  0
CLASS
  1
XRECORD
  2
AcDbXrecord
  3
ObjectDBX Classes
 90
        0
280
     0
281
     0
  0
CLASS
  1
LWPOLYLINE
  2
AcDbPolyline
  3
ObjectDBX Classes
 90
        0
280
     0
281
     1
  0
ENDSEC
  0
SECTION
  2
TABLES
  0
TABLE
  2
VPORT
  5
20
330
0
100
AcDbSymbolTable
 70
     1
  0
VPORT
  5
21
330
20
100
AcDbSymbolTableRecord
100
AcDbViewportTableRecord
  2
*ACTIVE
 70
     0
  0
ENDTAB
  0
TABLE
  2
LTYPE
  5
22
330
0
100
AcDbSymbolTable
 70
     1
  0
LTYPE
  5
23
330
21
100
AcDbSymbolTableRecord
100
AcDbLinetypeTableRecord
  2
BYBLOCK
 70
     0
  3

 72
    65
 73
     0
 40
0.0
  0
LTYPE
  5
24
330
21
100
AcDbSymbolTableRecord
100
AcDbLinetypeTableRecord
  2
BYLAYER
 70
     0
  3

 72
    65
 73
     0
 40
0.0
  0
LTYPE
  5
25
330
21
100
AcDbSymbolTableRecord
100
AcDbLinetypeTableRecord
  2
CONTINUOUS
 70
     0
  3
Solid line
 72
    65
 73
     0
 40
0.0
  0
ENDTAB
  0
TABLE
  2
LAYER
  5
B14
330
0
100
AcDbSymbolTable
 70
3
  0
LAYER
  5
B15
330
B14
100
AcDbSymbolTableRecord
100
AcDbLayerTableRecord
  2
0
 70
   0
 62
   7
  6
CONTINUOUS
  0
LAYER
  5
B16
330
B14
100
AcDbSymbolTableRecord
100
AcDbLayerTableRecord
  2
none
 70
    0
 62
    7
  6
CONTINUOUS
  0
LAYER
  5
B17
330
B14
100
AcDbSymbolTableRecord
100
AcDbLayerTableRecord
  2
Sketch243
 70
    0
 62
    7
  6
CONTINUOUS
  0
ENDTAB
  0
TABLE
  2
STYLE
  5
70
330
0
100
AcDbSymbolTable
 70
     2
  0
STYLE
  5
71
330
70
100
AcDbSymbolTableRecord
100
AcDbTextStyleTableRecord
  2
STANDARD
 70
     0
 40
0.0
 41
1.0
 50
0.0
 71
     0
 42
2.5
  3
arial.ttf
  4

  0
STYLE
  5
72
330
70
100
AcDbSymbolTableRecord
100
AcDbTextStyleTableRecord
  2
ANNOTATIVE
 70
     0
 40
0.0
 41
1.0
 50
0.0
 71
     0
 42
2.5
  3
arial.ttf
  4

  0
ENDTAB
  0
TABLE
  2
VIEW
  5
73
330
0
100
AcDbSymbolTable
 70
     0
  0
ENDTAB
  0
TABLE
  2
UCS
  5
74
330
0
100
AcDbSymbolTable
 70
     0
  0
ENDTAB
  0
TABLE
  2
APPID
  5
75
330
0
100
AcDbSymbolTable
 70
     2
  0
APPID
  5
76
330
75
100
AcDbSymbolTableRecord
100
AcDbRegAppTableRecord
  2
ACAD
 70
     0
  0
APPID
  5
77
330
75
100
AcDbSymbolTableRecord
100
AcDbRegAppTableRecord
  2
ACADANNOTATIVE
 70
     0
  0
ENDTAB
  0
TABLE
  2
DIMSTYLE
  5
78
330
0
100
AcDbSymbolTable
 70
     2
  0
DIMSTYLE
105
79
330
78
100
AcDbSymbolTableRecord
100
AcDbDimStyleTableRecord
  2
STANDARD
 70
     0
  3

  4

  5

  6

  7

 40
0.0
 41
2.5
 42
0.625
 43
3.75
 44
1.25
 45
0.0
 46
0.0
 47
0.0
 48
0.0
140
2.5
141
2.5
142
0.0
143
0.03937007874016
144
1.0
145
0.0
146
1.0
147
0.625
 71
     0
 72
     0
 73
     0
 74
     0
 75
     0
 76
     0
 77
     1
 78
     8
170
     0
171
     3
172
     1
173
     0
174
     0
175
     0
176
     0
177
     0
178
     0
270
     2
271
     2
272
     2
273
     2
274
     3
340
71
275
     0
280
     0
281
     0
282
     0
283
     0
284
     8
285
     0
286
     0
287
     3
288
     0
  0
ENDTAB
  0
TABLE
  2
BLOCK_RECORD
  5
A01
330
0
100
AcDbSymbolTable
  70
5
  0
BLOCK_RECORD
  5
A02
330
A01
100
AcDbSymbolTableRecord
100
AcDbBlockTableRecord
  2
*MODEL_SPACE
  0
BLOCK_RECORD
  5
A03
330
A01
100
AcDbSymbolTableRecord
100
AcDbBlockTableRecord
  2
*PAPER_SPACE
  0
ENDTAB
  0
ENDSEC
  0
SECTION
  2
BLOCKS
  0
BLOCK
  5
A04
330
A02
100
AcDbEntity
  8
0
100
AcDbBlockBegin
  2
*MODEL_SPACE
 70
   0
 10
0
 20
0
 30
0
  3
*MODEL_SPACE
  1
 
  0
ENDBLK
  5
A05
330
A02
100
AcDbEntity
  8
0
100
AcDbBlockEnd
  0
BLOCK
  5
A06
330
A03
100
AcDbEntity
 67
1
  8
0
100
AcDbBlockBegin
  2
*PAPER_SPACE
 70
   0
 10
0
 20
0
 30
0
  3
*PAPER_SPACE
  1
 
  0
ENDBLK
  5
A07
330
A03
100
AcDbEntity
 67
    1
  8
0
100
AcDbBlockEnd
  0
ENDSEC
  0
SECTION
  2
ENTITIES
  0
LINE
  5
A08
330
A02
100
AcDbEntity
  8
Sketch243
100
AcDbLine
 10
-53.3651
 20
-2.51472
 30
18.967
 11
-53.3896
 21
-15.8964
 31
18.2661
  0
ARC
  5
A09
330
A02
100
AcDbEntity
  8
Sketch243
100
AcDbCircle
 10
-53.0898
 20
-15.8964
 30
18.2557
 40
0.299817
100
AcDbArc
 50
180
 51
-90.1048
  0
LINE
  5
A0A
330
A02
100
AcDbEntity
  8
Sketch243
100
AcDbLine
 10
-53.0903
 20
-16.1959
 30
18.24
 11
-39.6985
 21
-16.1959
 31
17.7723
  0
ARC
  5
A0B
330
A02
100
AcDbEntity
  8
Sketch243
100
AcDbCircle
 10
-39.6979
 20
-15.8964
 30
17.788
 40
0.299589
100
AcDbArc
 50
-90.1048
 51
0
  0
LINE
  5
A0C
330
A02
100
AcDbEntity
  8
Sketch243
100
AcDbLine
 10
-39.3981
 20
-15.8964
 30
17.7775
 11
-39.3736
 21
-2.51472
 31
18.4784
  0
ARC
  5
A0D
330
A02
100
AcDbEntity
  8
Sketch243
100
AcDbCircle
 10
-39.6735
 20
-2.51472
 30
18.4889
 40
0.299817
100
AcDbArc
 50
0
 51
89.8952
  0
LINE
  5
A0E
330
A02
100
AcDbEntity
  8
Sketch243
100
AcDbLine
 10
-39.6729
 20
-2.21513
 30
18.5046
 11
-53.0648
 21
-2.21513
 31
18.9722
  0
ARC
  5
A0F
330
A02
100
AcDbEntity
  8
Sketch243
100
AcDbCircle
 10
-53.0653
 20
-2.51472
 30
18.9565
 40
0.299589
100
AcDbArc
 50
89.8952
 51
180
  0
LINE
  5
A10
330
A02
100
AcDbEntity
  8
Sketch243
100
AcDbLine
 10
-84.0511
 20
55.0563
 30
23.0576
 11
-84.0755
 21
41.6746
 31
22.3567
  0
ARC
  5
A11
330
A02
100
AcDbEntity
  8
Sketch243
100
AcDbCircle
 10
-83.7757
 20
41.6746
 30
22.3463
 40
0.299817
100
AcDbArc
 50
180
 51
-90.1048
  0
LINE
  5
A12
330
A02
100
AcDbEntity
  8
Sketch243
100
AcDbLine
 10
-83.7763
 20
41.375
 30
22.3306
 11
-70.3844
 21
41.375
 31
21.8629
  0
ARC
  5
A13
330
A02
100
AcDbEntity
  8
Sketch243
100
AcDbCircle
 10
-70.3839
 20
41.6746
 30
21.8786
 40
0.299589
100
AcDbArc
 50
-90.1048
 51
0
  0
LINE
  5
A14
330
A02
100
AcDbEntity
  8
Sketch243
100
AcDbLine
 10
-70.0841
 20
41.6746
 30
21.8681
 11
-70.0596
 21
55.0563
 31
22.569
  0
ARC
  5
A15
330
A02
100
AcDbEntity
  8
Sketch243
100
AcDbCircle
 10
-70.3594
 20
55.0563
 30
22.5795
 40
0.299817
100
AcDbArc
 50
0
 51
89.8952
  0
LINE
  5
A16
330
A02
100
AcDbEntity
  8
Sketch243
100
AcDbLine
 10
-70.3588
 20
55.3559
 30
22.5952
 11
-83.7507
 21
55.3559
 31
23.0628
  0
ARC
  5
A17
330
A02
100
AcDbEntity
  8
Sketch243
100
AcDbCircle
 10
-83.7512
 20
55.0563
 30
23.0471
 40
0.299589
100
AcDbArc
 50
89.8952
 51
180
  0
LINE
  5
A18
330
A02
100
AcDbEntity
  8
Sketch243
100
AcDbLine
 10
-84.0853
 20
36.332
 30
22.0769
 11
-84.1098
 21
22.9503
 31
21.376
  0
ARC
  5
A19
330
A02
100
AcDbEntity
  8
Sketch243
100
AcDbCircle
 10
-83.81
 20
22.9503
 30
21.3656
 40
0.299817
100
AcDbArc
 50
180
 51
-90.1048
  0
LINE
  5
A1A
330
A02
100
AcDbEntity
  8
Sketch243
100
AcDbLine
 10
-83.8105
 20
22.6507
 30
21.3499
 11
-70.4187
 21
22.6507
 31
20.8822
  0
ARC
  5
A1B
330
A02
100
AcDbEntity
  8
Sketch243
100
AcDbCircle
 10
-70.4181
 20
22.9503
 30
20.8979
 40
0.299589
100
AcDbArc
 50
-90.1048
 51
0
  0
LINE
  5
A1C
330
A02
100
AcDbEntity
  8
Sketch243
100
AcDbLine
 10
-70.1183
 20
22.9503
 30
20.8874
 11
-70.0938
 21
36.332
 31
21.5883
  0
ARC
  5
A1D
330
A02
100
AcDbEntity
  8
Sketch243
100
AcDbCircle
 10
-70.3936
 20
36.332
 30
21.5988
 40
0.299817
100
AcDbArc
 50
0
 51
89.8952
  0
LINE
  5
A1E
330
A02
100
AcDbEntity
  8
Sketch243
100
AcDbLine
 10
-70.3931
 20
36.6316
 30
21.6145
 11
-83.7849
 21
36.6316
 31
22.0821
  0
ARC
  5
A1F
330
A02
100
AcDbEntity
  8
Sketch243
100
AcDbCircle
 10
-83.7855
 20
36.332
 30
22.0664
 40
0.299589
100
AcDbArc
 50
89.8952
 51
180
  0
LINE
  5
A20
330
A02
100
AcDbEntity
  8
Sketch243
100
AcDbLine
 10
-103.096
 20
51.5611
 30
23.5394
 11
-103.12
 21
38.1794
 31
22.8385
  0
ARC
  5
A21
330
A02
100
AcDbEntity
  8
Sketch243
100
AcDbCircle
 10
-102.82
 20
38.1794
 30
22.828
 40
0.299817
100
AcDbArc
 50
-180
 51
-90.1048
  0
LINE
  5
A22
330
A02
100
AcDbEntity
  8
Sketch243
100
AcDbLine
 10
-102.821
 20
37.8798
 30
22.8123
 11
-89.4292
 21
37.8798
 31
22.3447
  0
ARC
  5
A23
330
A02
100
AcDbEntity
  8
Sketch243
100
AcDbCircle
 10
-89.4287
 20
38.1794
 30
22.3604
 40
0.299589
100
AcDbArc
 50
-90.1048
 51
0
  0
LINE
  5
A24
330
A02
100
AcDbEntity
  8
Sketch243
100
AcDbLine
 10
-89.1288
 20
38.1794
 30
22.3499
 11
-89.1044
 21
51.5611
 31
23.0508
  0
ARC
  5
A25
330
A02
100
AcDbEntity
  8
Sketch243
100
AcDbCircle
 10
-89.4042
 20
51.5611
 30
23.0612
 40
0.299817
100
AcDbArc
 50
0
 51
89.8952
  0
LINE
  5
A26
330
A02
100
AcDbEntity
  8
Sketch243
100
AcDbLine
 10
-89.4036
 20
51.8607
 30
23.0769
 11
-102.795
 21
51.8607
 31
23.5446
  0
ARC
  5
A27
330
A02
100
AcDbEntity
  8
Sketch243
100
AcDbCircle
 10
-102.796
 20
51.5611
 30
23.5289
 40
0.299589
100
AcDbArc
 50
89.8952
 51
180
  0
LINE
  5
A28
330
A02
100
AcDbEntity
  8
Sketch243
100
AcDbLine
 10
-103.131
 20
32.5372
 30
22.543
 11
-103.155
 21
19.1555
 31
21.8421
  0
ARC
  5
A29
330
A02
100
AcDbEntity
  8
Sketch243
100
AcDbCircle
 10
-102.855
 20
19.1555
 30
21.8316
 40
0.299817
100
AcDbArc
 50
180
 51
-90.1048
  0
LINE
  5
A2A
330
A02
100
AcDbEntity
  8
Sketch243
100
AcDbLine
 10
-102.856
 20
18.8559
 30
21.8159
 11
-89.464
 21
18.8559
 31
21.3483
  0
ARC
  5
A2B
330
A02
100
AcDbEntity
  8
Sketch243
100
AcDbCircle
 10
-89.4635
 20
19.1555
 30
21.364
 40
0.299589
100
AcDbArc
 50
-90.1048
 51
0
  0
LINE
  5
A2C
330
A02
100
AcDbEntity
  8
Sketch243
100
AcDbLine
 10
-89.1636
 20
19.1555
 30
21.3535
 11
-89.1392
 21
32.5372
 31
22.0544
  0
ARC
  5
A2D
330
A02
100
AcDbEntity
  8
Sketch243
100
AcDbCircle
 10
-89.439
 20
32.5372
 30
22.0649
 40
0.299817
100
AcDbArc
 50
0
 51
89.8952
  0
LINE
  5
A2E
330
A02
100
AcDbEntity
  8
Sketch243
100
AcDbLine
 10
-89.4384
 20
32.8368
 30
22.0805
 11
-102.83
 21
32.8368
 31
22.5482
  0
ARC
  5
A2F
330
A02
100
AcDbEntity
  8
Sketch243
100
AcDbCircle
 10
-102.831
 20
32.5372
 30
22.5325
 40
0.299589
100
AcDbArc
 50
89.8952
 51
180
  0
LINE
  5
A30
330
A02
100
AcDbEntity
  8
Sketch243
100
AcDbLine
 10
-84.1206
 20
17.0085
 30
21.0648
 11
-84.1451
 21
3.62685
 31
20.3639
  0
ARC
  5
A31
330
A02
100
AcDbEntity
  8
Sketch243
100
AcDbCircle
 10
-83.8453
 20
3.62685
 30
20.3535
 40
0.299817
100
AcDbArc
 50
-180
 51
-90.1048
  0
LINE
  5
A32
330
A02
100
AcDbEntity
  8
Sketch243
100
AcDbLine
 10
-83.8458
 20
3.32726
 30
20.3378
 11
-70.454
 21
3.32726
 31
19.8701
  0
ARC
  5
A33
330
A02
100
AcDbEntity
  8
Sketch243
100
AcDbCircle
 10
-70.4535
 20
3.62685
 30
19.8858
 40
0.299589
100
AcDbArc
 50
-90.1048
 51
0
  0
LINE
  5
A34
330
A02
100
AcDbEntity
  8
Sketch243
100
AcDbLine
 10
-70.1536
 20
3.62685
 30
19.8753
 11
-70.1292
 21
17.0085
 31
20.5762
  0
ARC
  5
A35
330
A02
100
AcDbEntity
  8
Sketch243
100
AcDbCircle
 10
-70.429
 20
17.0085
 30
20.5867
 40
0.299817
100
AcDbArc
 50
0
 51
89.8952
  0
LINE
  5
A36
330
A02
100
AcDbEntity
  8
Sketch243
100
AcDbLine
 10
-70.4284
 20
17.3081
 30
20.6024
 11
-83.8203
 21
17.3081
 31
21.07
  0
ARC
  5
A37
330
A02
100
AcDbEntity
  8
Sketch243
100
AcDbCircle
 10
-83.8208
 20
17.0085
 30
21.0543
 40
0.299589
100
AcDbArc
 50
89.8952
 51
180
  0
LINE
  5
A38
330
A02
100
AcDbEntity
  8
Sketch243
100
AcDbLine
 10
-65.0081
 20
57.5528
 30
22.5235
 11
-65.0326
 21
44.1712
 31
21.8226
  0
ARC
  5
A39
330
A02
100
AcDbEntity
  8
Sketch243
100
AcDbCircle
 10
-64.7327
 20
44.1712
 30
21.8122
 40
0.299817
100
AcDbArc
 50
180
 51
-90.1048
  0
LINE
  5
A3A
330
A02
100
AcDbEntity
  8
Sketch243
100
AcDbLine
 10
-64.7333
 20
43.8716
 30
21.7965
 11
-51.3415
 21
43.8716
 31
21.3288
  0
ARC
  5
A3B
330
A02
100
AcDbEntity
  8
Sketch243
100
AcDbCircle
 10
-51.3409
 20
44.1712
 30
21.3445
 40
0.299589
100
AcDbArc
 50
-90.1048
 51
0
  0
LINE
  5
A3C
330
A02
100
AcDbEntity
  8
Sketch243
100
AcDbLine
 10
-51.0411
 20
44.1712
 30
21.3341
 11
-51.0166
 21
57.5528
 31
22.0349
  0
ARC
  5
A3D
330
A02
100
AcDbEntity
  8
Sketch243
100
AcDbCircle
 10
-51.3164
 20
57.5528
 30
22.0454
 40
0.299817
100
AcDbArc
 50
0
 51
89.8952
  0
LINE
  5
A3E
330
A02
100
AcDbEntity
  8
Sketch243
100
AcDbLine
 10
-51.3159
 20
57.8524
 30
22.0611
 11
-64.7077
 21
57.8524
 31
22.5287
  0
ARC
  5
A3F
330
A02
100
AcDbEntity
  8
Sketch243
100
AcDbCircle
 10
-64.7083
 20
57.5528
 30
22.5131
 40
0.299589
100
AcDbArc
 50
89.8952
 51
180
  0
LINE
  5
A40
330
A02
100
AcDbEntity
  8
Sketch243
100
AcDbLine
 10
-65.0429
 20
38.529
 30
21.5271
 11
-65.0674
 21
25.1473
 31
20.8263
  0
ARC
  5
A41
330
A02
100
AcDbEntity
  8
Sketch243
100
AcDbCircle
 10
-64.7675
 20
25.1473
 30
20.8158
 40
0.299817
100
AcDbArc
 50
180
 51
-90.1048
  0
LINE
  5
A42
330
A02
100
AcDbEntity
  8
Sketch243
100
AcDbLine
 10
-64.7681
 20
24.8477
 30
20.8001
 11
-51.3763
 21
24.8477
 31
20.3324
  0
ARC
  5
A43
330
A02
100
AcDbEntity
  8
Sketch243
100
AcDbCircle
 10
-51.3757
 20
25.1473
 30
20.3481
 40
0.299589
100
AcDbArc
 50
-90.1048
 51
0
  0
LINE
  5
A44
330
A02
100
AcDbEntity
  8
Sketch243
100
AcDbLine
 10
-51.0759
 20
25.1473
 30
20.3377
 11
-51.0514
 21
38.529
 31
21.0385
  0
ARC
  5
A45
330
A02
100
AcDbEntity
  8
Sketch243
100
AcDbCircle
 10
-51.3512
 20
38.529
 30
21.049
 40
0.299817
100
AcDbArc
 50
0
 51
89.8952
  0
LINE
  5
A46
330
A02
100
AcDbEntity
  8
Sketch243
100
AcDbLine
 10
-51.3507
 20
38.8285
 30
21.0647
 11
-64.7425
 21
38.8285
 31
21.5324
  0
ARC
  5
A47
330
A02
100
AcDbEntity
  8
Sketch243
100
AcDbCircle
 10
-64.7431
 20
38.529
 30
21.5167
 40
0.299589
100
AcDbArc
 50
89.8952
 51
180
  0
LINE
  5
A48
330
A02
100
AcDbEntity
  8
Sketch243
100
AcDbLine
 10
-65.0777
 20
19.5051
 30
20.5307
 11
-65.1022
 21
6.12342
 31
19.8299
  0
ARC
  5
A49
330
A02
100
AcDbEntity
  8
Sketch243
100
AcDbCircle
 10
-64.8023
 20
6.12342
 30
19.8194
 40
0.299817
100
AcDbArc
 50
180
 51
-90.1048
  0
LINE
  5
A4A
330
A02
100
AcDbEntity
  8
Sketch243
100
AcDbLine
 10
-64.8029
 20
5.82383
 30
19.8037
 11
-51.411
 21
5.82383
 31
19.336
  0
ARC
  5
A4B
330
A02
100
AcDbEntity
  8
Sketch243
100
AcDbCircle
 10
-51.4105
 20
6.12342
 30
19.3517
 40
0.299589
100
AcDbArc
 50
-90.1048
 51
0
  0
LINE
  5
A4C
330
A02
100
AcDbEntity
  8
Sketch243
100
AcDbLine
 10
-51.1107
 20
6.12342
 30
19.3413
 11
-51.0862
 21
19.5051
 31
20.0421
  0
ARC
  5
A4D
330
A02
100
AcDbEntity
  8
Sketch243
100
AcDbCircle
 10
-51.386
 20
19.5051
 30
20.0526
 40
0.299817
100
AcDbArc
 50
0
 51
89.8952
  0
LINE
  5
A4E
330
A02
100
AcDbEntity
  8
Sketch243
100
AcDbLine
 10
-51.3855
 20
19.8046
 30
20.0683
 11
-64.7773
 21
19.8046
 31
20.536
  0
ARC
  5
A4F
330
A02
100
AcDbEntity
  8
Sketch243
100
AcDbCircle
 10
-64.7779
 20
19.5051
 30
20.5203
 40
0.299589
100
AcDbArc
 50
89.8952
 51
180
  0
LINE
  5
A50
330
A02
100
AcDbEntity
  8
Sketch243
100
AcDbLine
 10
-46.0201
 20
29.9907
 30
20.4151
 11
-46.0446
 21
16.609
 31
19.7142
  0
ARC
  5
A51
330
A02
100
AcDbEntity
  8
Sketch243
100
AcDbCircle
 10
-45.7448
 20
16.609
 30
19.7037
 40
0.299817
100
AcDbArc
 50
180
 51
-90.1048
  0
LINE
  5
A52
330
A02
100
AcDbEntity
  8
Sketch243
100
AcDbLine
 10
-45.7453
 20
16.3094
 30
19.6881
 11
-32.3535
 21
16.3094
 31
19.2204
  0
ARC
  5
A53
330
A02
100
AcDbEntity
  8
Sketch243
100
AcDbCircle
 10
-32.3529
 20
16.609
 30
19.2361
 40
0.299589
100
AcDbArc
 50
-90.1048
 51
0
  0
LINE
  5
A54
330
A02
100
AcDbEntity
  8
Sketch243
100
AcDbLine
 10
-32.0531
 20
16.609
 30
19.2256
 11
-32.0286
 21
29.9907
 31
19.9265
  0
ARC
  5
A55
330
A02
100
AcDbEntity
  8
Sketch243
100
AcDbCircle
 10
-32.3285
 20
29.9907
 30
19.937
 40
0.299817
100
AcDbArc
 50
0
 51
89.8952
  0
LINE
  5
A56
330
A02
100
AcDbEntity
  8
Sketch243
100
AcDbLine
 10
-32.3279
 20
30.2903
 30
19.9527
 11
-45.7197
 21
30.2903
 31
20.4203
  0
ARC
  5
A57
330
A02
100
AcDbEntity
  8
Sketch243
100
AcDbCircle
 10
-45.7203
 20
29.9907
 30
20.4046
 40
0.299589
100
AcDbArc
 50
89.8952
 51
180
  0
LINE
  5
A58
330
A02
100
AcDbEntity
  8
Sketch243
100
AcDbLine
 10
-45.9853
 20
49.0146
 30
21.4115
 11
-46.0098
 21
35.6329
 31
20.7106
  0
ARC
  5
A59
330
A02
100
AcDbEntity
  8
Sketch243
100
AcDbCircle
 10
-45.71
 20
35.6329
 30
20.7001
 40
0.299817
100
AcDbArc
 50
180
 51
-90.1048
  0
LINE
  5
A5A
330
A02
100
AcDbEntity
  8
Sketch243
100
AcDbLine
 10
-45.7105
 20
35.3333
 30
20.6845
 11
-32.3187
 21
35.3333
 31
20.2168
  0
ARC
  5
A5B
330
A02
100
AcDbEntity
  8
Sketch243
100
AcDbCircle
 10
-32.3181
 20
35.6329
 30
20.2325
 40
0.299589
100
AcDbArc
 50
-90.1048
 51
0
  0
LINE
  5
A5C
330
A02
100
AcDbEntity
  8
Sketch243
100
AcDbLine
 10
-32.0183
 20
35.6329
 30
20.222
 11
-31.9938
 21
49.0146
 31
20.9229
  0
ARC
  5
A5D
330
A02
100
AcDbEntity
  8
Sketch243
100
AcDbCircle
 10
-32.2937
 20
49.0146
 30
20.9334
 40
0.299817
100
AcDbArc
 50
0
 51
89.8952
  0
LINE
  5
A5E
330
A02
100
AcDbEntity
  8
Sketch243
100
AcDbLine
 10
-32.2931
 20
49.3141
 30
20.9491
 11
-45.6849
 21
49.3141
 31
21.4167
  0
ARC
  5
A5F
330
A02
100
AcDbEntity
  8
Sketch243
100
AcDbCircle
 10
-45.6855
 20
49.0146
 30
21.401
 40
0.299589
100
AcDbArc
 50
89.8952
 51
180
  0
LINE
  5
A60
330
A02
100
AcDbEntity
  8
Sketch243
100
AcDbLine
 10
-45.9505
 20
68.0385
 30
22.4079
 11
-45.975
 21
54.6568
 31
21.707
  0
ARC
  5
A61
330
A02
100
AcDbEntity
  8
Sketch243
100
AcDbCircle
 10
-45.6752
 20
54.6568
 30
21.6965
 40
0.299817
100
AcDbArc
 50
180
 51
-90.1048
  0
LINE
  5
A62
330
A02
100
AcDbEntity
  8
Sketch243
100
AcDbLine
 10
-45.6757
 20
54.3572
 30
21.6808
 11
-32.2839
 21
54.3572
 31
21.2132
  0
ARC
  5
A63
330
A02
100
AcDbEntity
  8
Sketch243
100
AcDbCircle
 10
-32.2833
 20
54.6568
 30
21.2289
 40
0.299589
100
AcDbArc
 50
-90.1048
 51
0
  0
LINE
  5
A64
330
A02
100
AcDbEntity
  8
Sketch243
100
AcDbLine
 10
-31.9835
 20
54.6568
 30
21.2184
 11
-31.959
 21
68.0385
 31
21.9193
  0
ARC
  5
A65
330
A02
100
AcDbEntity
  8
Sketch243
100
AcDbCircle
 10
-32.2589
 20
68.0385
 30
21.9298
 40
0.299817
100
AcDbArc
 50
0
 51
89.8952
  0
LINE
  5
A66
330
A02
100
AcDbEntity
  8
Sketch243
100
AcDbLine
 10
-32.2583
 20
68.338
 30
21.9454
 11
-45.6502
 21
68.338
 31
22.4131
  0
ARC
  5
A67
330
A02
100
AcDbEntity
  8
Sketch243
100
AcDbCircle
 10
-45.6507
 20
68.0385
 30
22.3974
 40
0.299589
100
AcDbArc
 50
89.8952
 51
180
  0
LINE
  5
A68
330
A02
100
AcDbEntity
  8
Sketch243
100
AcDbLine
 10
-22.8889
 20
62.4557
 30
21.3098
 11
-24.0805
 21
49.125
 31
20.6523
  0
ARC
  5
A69
330
A02
100
AcDbEntity
  8
Sketch243
100
AcDbCircle
 10
-23.7819
 20
49.0989
 30
20.6405
 40
0.299768
100
AcDbArc
 50
175.003
 51
-95.1078
  0
LINE
  5
A6A
330
A02
100
AcDbEntity
  8
Sketch243
100
AcDbLine
 10
-23.8085
 20
48.8005
 30
20.6258
 11
-10.4698
 21
47.6342
 31
20.0989
  0
ARC
  5
A6B
330
A02
100
AcDbEntity
  8
Sketch243
100
AcDbCircle
 10
-10.4431
 20
47.9326
 30
20.1136
 40
0.299639
100
AcDbArc
 50
-95.1078
 51
-4.99701
  0
LINE
  5
A6C
330
A02
100
AcDbEntity
  8
Sketch243
100
AcDbLine
 10
-10.1445
 20
47.9065
 30
20.1018
 11
-8.95293
 21
61.2372
 31
20.7592
  0
ARC
  5
A6D
330
A02
100
AcDbEntity
  8
Sketch243
100
AcDbCircle
 10
-9.25156
 20
61.2633
 30
20.771
 40
0.299768
100
AcDbArc
 50
-4.99701
 51
84.8922
  0
LINE
  5
A6E
330
A02
100
AcDbEntity
  8
Sketch243
100
AcDbLine
 10
-9.22488
 20
61.5618
 30
20.7858
 11
-22.5636
 21
62.7281
 31
21.3127
  0
ARC
  5
A6F
330
A02
100
AcDbEntity
  8
Sketch243
100
AcDbCircle
 10
-22.5903
 20
62.4296
 30
21.298
 40
0.299639
100
AcDbArc
 50
84.8922
 51
175.003
  0
LINE
  5
A70
330
A02
100
AcDbEntity
  8
Sketch243
100
AcDbLine
 10
-24.5829
 20
43.5042
 30
20.3751
 11
-25.7745
 21
30.1735
 31
19.7177
  0
ARC
  5
A71
330
A02
100
AcDbEntity
  8
Sketch243
100
AcDbCircle
 10
-25.4758
 20
30.1474
 30
19.7059
 40
0.299768
100
AcDbArc
 50
175.003
 51
-95.1078
  0
LINE
  5
A72
330
A02
100
AcDbEntity
  8
Sketch243
100
AcDbLine
 10
-25.5025
 20
29.849
 30
19.6912
 11
-12.1638
 21
28.6827
 31
19.1642
  0
ARC
  5
A73
330
A02
100
AcDbEntity
  8
Sketch243
100
AcDbCircle
 10
-12.1371
 20
28.9811
 30
19.1789
 40
0.299639
100
AcDbArc
 50
-95.1078
 51
-4.99701
  0
LINE
  5
A74
330
A02
100
AcDbEntity
  8
Sketch243
100
AcDbLine
 10
-11.8385
 20
28.955
 30
19.1671
 11
-10.6469
 21
42.2857
 31
19.8246
  0
ARC
  5
A75
330
A02
100
AcDbEntity
  8
Sketch243
100
AcDbCircle
 10
-10.9455
 20
42.3118
 30
19.8364
 40
0.299768
100
AcDbArc
 50
-4.99701
 51
84.8922
  0
LINE
  5
A76
330
A02
100
AcDbEntity
  8
Sketch243
100
AcDbLine
 10
-10.9188
 20
42.6103
 30
19.8511
 11
-24.2576
 21
43.7766
 31
20.3781
  0
ARC
  5
A77
330
A02
100
AcDbEntity
  8
Sketch243
100
AcDbCircle
 10
-24.2843
 20
43.4781
 30
20.3633
 40
0.299639
100
AcDbArc
 50
84.8922
 51
175.003
  0
LINE
  5
A78
330
A02
100
AcDbEntity
  8
Sketch243
100
AcDbLine
 10
-26.2769
 20
24.5527
 30
19.4405
 11
-27.4684
 21
11.222
 31
18.783
  0
ARC
  5
A79
330
A02
100
AcDbEntity
  8
Sketch243
100
AcDbCircle
 10
-27.1698
 20
11.1959
 30
18.7712
 40
0.299768
100
AcDbArc
 50
175.003
 51
-95.1078
  0
LINE
  5
A7A
330
A02
100
AcDbEntity
  8
Sketch243
100
AcDbLine
 10
-27.1965
 20
10.8975
 30
18.7565
 11
-13.8577
 21
9.73117
 31
18.2296
  0
ARC
  5
A7B
330
A02
100
AcDbEntity
  8
Sketch243
100
AcDbCircle
 10
-13.831
 20
10.0296
 30
18.2443
 40
0.299639
100
AcDbArc
 50
-95.1078
 51
-4.99701
  0
LINE
  5
A7C
330
A02
100
AcDbEntity
  8
Sketch243
100
AcDbLine
 10
-13.5324
 20
10.0035
 30
18.2325
 11
-12.3409
 21
23.3342
 31
18.8899
  0
ARC
  5
A7D
330
A02
100
AcDbEntity
  8
Sketch243
100
AcDbCircle
 10
-12.6395
 20
23.3603
 30
18.9017
 40
0.299768
100
AcDbArc
 50
-4.99701
 51
84.8922
  0
LINE
  5
A7E
330
A02
100
AcDbEntity
  8
Sketch243
100
AcDbLine
 10
-12.6128
 20
23.6588
 30
18.9164
 11
-25.9516
 21
24.8251
 31
19.4434
  0
ARC
  5
A7F
330
A02
100
AcDbEntity
  8
Sketch243
100
AcDbCircle
 10
-25.9782
 20
24.5266
 30
19.4287
 40
0.299639
100
AcDbArc
 50
84.8922
 51
175.003
  0
LINE
  5
A80
330
A02
100
AcDbEntity
  8
Sketch243
100
AcDbLine
 10
-9.44012
 20
5.0285
 30
17.8287
 11
-12.2484
 21
-8.06071
 31
17.2404
  0
ARC
  5
A81
330
A02
100
AcDbEntity
  8
Sketch243
100
AcDbCircle
 10
-11.9552
 20
-8.123
 30
17.2269
 40
0.299696
100
AcDbArc
 50
168.004
 51
-102.109
  0
LINE
  5
A82
330
A02
100
AcDbEntity
  8
Sketch243
100
AcDbLine
 10
-12.0181
 20
-8.41604
 30
17.2137
 11
1.076
 21
-11.1982
 31
16.6105
  0
ARC
  5
A83
330
A02
100
AcDbEntity
  8
Sketch243
100
AcDbCircle
 10
1.13888
 20
-10.9052
 30
16.6237
 40
0.299711
100
AcDbArc
 50
-102.109
 51
-11.9956
  0
LINE
  5
A84
330
A02
100
AcDbEntity
  8
Sketch243
100
AcDbLine
 10
1.43203
 20
-10.9675
 30
16.6102
 11
4.24029
 21
2.12173
 31
17.1985
  0
ARC
  5
A85
330
A02
100
AcDbEntity
  8
Sketch243
100
AcDbCircle
 10
3.94713
 20
2.18402
 30
17.212
 40
0.299696
100
AcDbArc
 50
-11.9956
 51
77.8909
  0
LINE
  5
A86
330
A02
100
AcDbEntity
  8
Sketch243
100
AcDbLine
 10
4.01001
 20
2.47706
 30
17.2252
 11
-9.0841
 21
5.25926
 31
17.8284
  0
ARC
  5
A87
330
A02
100
AcDbEntity
  8
Sketch243
100
AcDbCircle
 10
-9.14697
 20
4.96621
 30
17.8152
 40
0.299711
100
AcDbArc
 50
77.8909
 51
168.004
  0
LINE
  5
A88
330
A02
100
AcDbEntity
  8
Sketch243
100
AcDbLine
 10
-76.0423
 20
-7.35391
 30
19.5052
 11
-72.5999
 21
-20.2796
 31
18.7071
  0
ARC
  5
A89
330
A02
100
AcDbEntity
  8
Sketch243
100
AcDbCircle
 10
-72.3101
 20
-20.202
 30
18.7011
 40
0.299939
100
AcDbArc
 50
-165.018
 51
-75.0868
  0
LINE
  5
A8A
330
A02
100
AcDbEntity
  8
Sketch243
100
AcDbLine
 10
-72.2331
 20
-20.4914
 30
18.6832
 11
-59.2912
 21
-17.028
 31
18.4129
  0
ARC
  5
A8B
330
A02
100
AcDbEntity
  8
Sketch243
100
AcDbCircle
 10
-59.3683
 20
-16.7386
 30
18.4308
 40
0.299468
100
AcDbArc
 50
-75.0868
 51
14.9821
  0
LINE
  5
A8C
330
A02
100
AcDbEntity
  8
Sketch243
100
AcDbLine
 10
-59.0785
 20
-16.6611
 30
18.4247
 11
-62.521
 21
-3.7354
 31
19.2227
  0
ARC
  5
A8D
330
A02
100
AcDbEntity
  8
Sketch243
100
AcDbCircle
 10
-62.8107
 20
-3.81294
 30
19.2288
 40
0.299938
100
AcDbArc
 50
14.9819
 51
104.913
  0
LINE
  5
A8E
330
A02
100
AcDbEntity
  8
Sketch243
100
AcDbLine
 10
-62.8878
 20
-3.52356
 30
19.2466
 11
-75.8296
 21
-6.98698
 31
19.517
  0
ARC
  5
A8F
330
A02
100
AcDbEntity
  8
Sketch243
100
AcDbCircle
 10
-75.7526
 20
-7.27637
 30
19.4991
 40
0.299468
100
AcDbArc
 50
104.913
 51
-165.018
  0
ARC
  5
A90
330
A02
100
AcDbEntity
  8
Sketch243
100
AcDbCircle
 10
-127.186
 20
-19.7227
 30
20.6425
 40
0.299429
100
AcDbArc
 50
134.976
 51
-135.067
  0
LINE
  5
A91
330
A02
100
AcDbEntity
  8
Sketch243
100
AcDbLine
 10
-127.399
 20
-19.9345
 30
20.6388
 11
-117.945
 21
-29.3957
 31
19.8126
  0
ARC
  5
A92
330
A02
100
AcDbEntity
  8
Sketch243
100
AcDbCircle
 10
-117.733
 20
-29.1838
 30
19.8163
 40
0.299977
100
AcDbArc
 50
-135.067
 51
-45.0238
  0
LINE
  5
A93
330
A02
100
AcDbEntity
  8
Sketch243
100
AcDbLine
 10
-117.521
 20
-29.3956
 30
19.7978
 11
-108.036
 21
-19.9322
 31
19.9628
  0
ARC
  5
A94
330
A02
100
AcDbEntity
  8
Sketch243
100
AcDbCircle
 10
-108.247
 20
-19.7204
 30
19.9813
 40
0.299429
100
AcDbArc
 50
-45.0238
 51
44.9326
  0
LINE
  5
A95
330
A02
100
AcDbEntity
  8
Sketch243
100
AcDbLine
 10
-117.488
 20
-10.0474
 30
20.8112
 11
-108.035
 21
-19.5086
 31
19.985
  0
ARC
  5
A96
330
A02
100
AcDbEntity
  8
Sketch243
100
AcDbCircle
 10
-117.701
 20
-10.2593
 30
20.8075
 40
0.299977
100
AcDbArc
 50
44.9326
 51
134.976
  0
LINE
  5
A97
330
A02
100
AcDbEntity
  8
Sketch243
100
AcDbLine
 10
-127.398
 20
-19.5109
 30
20.661
 11
-117.912
 21
-10.0475
 31
20.826
  0
LINE
  5
A98
330
A02
100
AcDbEntity
  8
Sketch243
100
AcDbLine
 10
-94.5985
 20
-33.3856
 30
18.7881
 11
-104.086
 21
-42.8469
 31
18.6232
  0
ARC
  5
A99
330
A02
100
AcDbEntity
  8
Sketch243
100
AcDbCircle
 10
-104.298
 20
-42.635
 30
18.6417
 40
0.299977
100
AcDbArc
 50
-135.08
 51
-45.0364
  0
LINE
  5
A9A
330
A02
100
AcDbEntity
  8
Sketch243
100
AcDbLine
 10
-104.51
 20
-42.8468
 30
18.638
 11
-113.961
 21
-33.3836
 31
19.4643
  0
ARC
  5
A9B
330
A02
100
AcDbEntity
  8
Sketch243
100
AcDbCircle
 10
-113.749
 20
-33.1718
 30
19.468
 40
0.299429
100
AcDbArc
 50
134.964
 51
-135.08
  0
LINE
  5
A9C
330
A02
100
AcDbEntity
  8
Sketch243
100
AcDbLine
 10
-113.961
 20
-32.96
 30
19.4865
 11
-104.473
 21
-23.4987
 31
19.6513
  0
ARC
  5
A9D
330
A02
100
AcDbEntity
  8
Sketch243
100
AcDbCircle
 10
-104.261
 20
-23.7105
 30
19.6328
 40
0.299977
100
AcDbArc
 50
44.9201
 51
134.964
  0
LINE
  5
A9E
330
A02
100
AcDbEntity
  8
Sketch243
100
AcDbLine
 10
-104.049
 20
-23.4987
 30
19.6365
 11
-94.5977
 21
-32.9619
 31
18.8102
  0
ARC
  5
A9F
330
A02
100
AcDbEntity
  8
Sketch243
100
AcDbCircle
 10
-94.8101
 20
-33.1737
 30
18.8066
 40
0.299429
100
AcDbArc
 50
-45.0364
 51
44.9201
  0
LINE
  5
AA0
330
A02
100
AcDbEntity
  8
Sketch243
100
AcDbLine
 10
-3.86181
 20
61.516
 30
20.5961
 11
-5.05337
 21
48.1853
 31
19.9386
  0
ARC
  5
AA1
330
A02
100
AcDbEntity
  8
Sketch243
100
AcDbCircle
 10
-4.75474
 20
48.1591
 30
19.9268
 40
0.299768
100
AcDbArc
 50
175.003
 51
-95.1078
  0
LINE
  5
AA2
330
A02
100
AcDbEntity
  8
Sketch243
100
AcDbLine
 10
-4.78142
 20
47.8607
 30
19.9121
 11
8.55733
 21
46.6944
 31
19.3851
  0
ARC
  5
AA3
330
A02
100
AcDbEntity
  8
Sketch243
100
AcDbCircle
 10
8.58401
 20
46.9929
 30
19.3999
 40
0.299639
100
AcDbArc
 50
-95.1078
 51
-4.99701
  0
LINE
  5
AA4
330
A02
100
AcDbEntity
  8
Sketch243
100
AcDbLine
 10
8.88263
 20
46.9667
 30
19.3881
 11
10.0742
 21
60.2975
 31
20.0455
  0
ARC
  5
AA5
330
A02
100
AcDbEntity
  8
Sketch243
100
AcDbCircle
 10
9.77556
 20
60.3236
 30
20.0573
 40
0.299768
100
AcDbArc
 50
-4.99701
 51
84.8922
  0
LINE
  5
AA6
330
A02
100
AcDbEntity
  8
Sketch243
100
AcDbLine
 10
9.80224
 20
60.622
 30
20.072
 11
-3.5365
 21
61.7883
 31
20.599
  0
ARC
  5
AA7
330
A02
100
AcDbEntity
  8
Sketch243
100
AcDbCircle
 10
-3.56318
 20
61.4899
 30
20.5843
 40
0.299639
100
AcDbArc
 50
84.8922
 51
175.003
  0
LINE
  5
AA8
330
A02
100
AcDbEntity
  8
Sketch243
100
AcDbLine
 10
-1.45544
 20
42.2449
 30
19.5015
 11
-4.2637
 21
29.1556
 31
18.9131
  0
ARC
  5
AA9
330
A02
100
AcDbEntity
  8
Sketch243
100
AcDbCircle
 10
-3.97055
 20
29.0933
 30
18.8996
 40
0.299696
100
AcDbArc
 50
168.004
 51
-102.109
  0
LINE
  5
AAA
330
A02
100
AcDbEntity
  8
Sketch243
100
AcDbLine
 10
-4.03342
 20
28.8003
 30
18.8865
 11
9.06068
 21
26.0181
 31
18.2833
  0
ARC
  5
AAB
330
A02
100
AcDbEntity
  8
Sketch243
100
AcDbCircle
 10
9.12355
 20
26.3112
 30
18.2965
 40
0.299711
100
AcDbArc
 50
-102.109
 51
-11.9956
  0
LINE
  5
AAC
330
A02
100
AcDbEntity
  8
Sketch243
100
AcDbLine
 10
9.41671
 20
26.2489
 30
18.283
 11
12.225
 21
39.3381
 31
18.8713
  0
ARC
  5
AAD
330
A02
100
AcDbEntity
  8
Sketch243
100
AcDbCircle
 10
11.9318
 20
39.4004
 30
18.8848
 40
0.299696
100
AcDbArc
 50
-11.9956
 51
77.8909
  0
LINE
  5
AAE
330
A02
100
AcDbEntity
  8
Sketch243
100
AcDbLine
 10
11.9947
 20
39.6934
 30
18.898
 11
-1.09942
 21
42.4756
 31
19.5011
  0
ARC
  5
AAF
330
A02
100
AcDbEntity
  8
Sketch243
100
AcDbCircle
 10
-1.16229
 20
42.1826
 30
19.488
 40
0.299711
100
AcDbArc
 50
77.8909
 51
168.004
  0
LINE
  5
AB0
330
A02
100
AcDbEntity
  8
Sketch243
100
AcDbLine
 10
-5.44778
 20
23.6367
 30
18.6651
 11
-8.25604
 21
10.5475
 31
18.0767
  0
ARC
  5
AB1
330
A02
100
AcDbEntity
  8
Sketch243
100
AcDbCircle
 10
-7.96289
 20
10.4852
 30
18.0632
 40
0.299696
100
AcDbArc
 50
168.004
 51
-102.109
  0
LINE
  5
AB2
330
A02
100
AcDbEntity
  8
Sketch243
100
AcDbLine
 10
-8.02576
 20
10.1921
 30
18.0501
 11
5.06834
 21
7.40993
 31
17.4469
  0
ARC
  5
AB3
330
A02
100
AcDbEntity
  8
Sketch243
100
AcDbCircle
 10
5.13121
 20
7.70298
 30
17.4601
 40
0.299711
100
AcDbArc
 50
-102.109
 51
-11.9956
  0
LINE
  5
AB4
330
A02
100
AcDbEntity
  8
Sketch243
100
AcDbLine
 10
5.42437
 20
7.64069
 30
17.4466
 11
8.23263
 21
20.7299
 31
18.0349
  0
ARC
  5
AB5
330
A02
100
AcDbEntity
  8
Sketch243
100
AcDbCircle
 10
7.93947
 20
20.7922
 30
18.0484
 40
0.299696
100
AcDbArc
 50
-11.9956
 51
77.8909
  0
LINE
  5
AB6
330
A02
100
AcDbEntity
  8
Sketch243
100
AcDbLine
 10
8.00235
 20
21.0852
 30
18.0616
 11
-5.09176
 21
23.8674
 31
18.6647
  0
ARC
  5
AB7
330
A02
100
AcDbEntity
  8
Sketch243
100
AcDbCircle
 10
-5.15463
 20
23.5744
 30
18.6516
 40
0.299711
100
AcDbArc
 50
77.8909
 51
168.004
  0
LINE
  5
AB8
330
A02
100
AcDbEntity
  8
Sketch243
100
AcDbLine
 10
17.1597
 20
38.2896
 30
18.644
 11
14.3514
 21
25.2003
 31
18.0557
  0
ARC
  5
AB9
330
A02
100
AcDbEntity
  8
Sketch243
100
AcDbCircle
 10
14.6446
 20
25.1381
 30
18.0422
 40
0.299696
100
AcDbArc
 50
168.004
 51
-102.109
  0
LINE
  5
ABA
330
A02
100
AcDbEntity
  8
Sketch243
100
AcDbLine
 10
14.5817
 20
24.845
 30
18.029
 11
27.6758
 21
22.0628
 31
17.4258
  0
ARC
  5
ABB
330
A02
100
AcDbEntity
  8
Sketch243
100
AcDbCircle
 10
27.7387
 20
22.3559
 30
17.439
 40
0.299711
100
AcDbArc
 50
-102.109
 51
-11.9956
  0
LINE
  5
ABC
330
A02
100
AcDbEntity
  8
Sketch243
100
AcDbLine
 10
28.0318
 20
22.2936
 30
17.4255
 11
30.8401
 21
35.3828
 31
18.0138
  0
ARC
  5
ABD
330
A02
100
AcDbEntity
  8
Sketch243
100
AcDbCircle
 10
30.5469
 20
35.4451
 30
18.0273
 40
0.299696
100
AcDbArc
 50
-11.9956
 51
77.8909
  0
LINE
  5
ABE
330
A02
100
AcDbEntity
  8
Sketch243
100
AcDbLine
 10
30.6098
 20
35.7381
 30
18.0405
 11
17.5157
 21
38.5203
 31
18.6437
  0
ARC
  5
ABF
330
A02
100
AcDbEntity
  8
Sketch243
100
AcDbCircle
 10
17.4528
 20
38.2273
 30
18.6305
 40
0.299711
100
AcDbArc
 50
77.8909
 51
168.004
  0
LINE
  5
AC0
330
A02
100
AcDbEntity
  8
Sketch243
100
AcDbLine
 10
13.1673
 20
19.6814
 30
17.8076
 11
10.3591
 21
6.59217
 31
17.2193
  0
ARC
  5
AC1
330
A02
100
AcDbEntity
  8
Sketch243
100
AcDbCircle
 10
10.6522
 20
6.52988
 30
17.2058
 40
0.299696
100
AcDbArc
 50
168.004
 51
-102.109
  0
LINE
  5
AC2
330
A02
100
AcDbEntity
  8
Sketch243
100
AcDbLine
 10
10.5894
 20
6.23684
 30
17.1926
 11
23.6835
 21
3.45464
 31
16.5894
  0
ARC
  5
AC3
330
A02
100
AcDbEntity
  8
Sketch243
100
AcDbCircle
 10
23.7463
 20
3.74769
 30
16.6026
 40
0.299711
100
AcDbArc
 50
-102.109
 51
-11.9956
  0
LINE
  5
AC4
330
A02
100
AcDbEntity
  8
Sketch243
100
AcDbLine
 10
24.0395
 20
3.6854
 30
16.5891
 11
26.8478
 21
16.7746
 31
17.1774
  0
ARC
  5
AC5
330
A02
100
AcDbEntity
  8
Sketch243
100
AcDbCircle
 10
26.5546
 20
16.8369
 30
17.1909
 40
0.299696
100
AcDbArc
 50
-11.9956
 51
77.8909
  0
LINE
  5
AC6
330
A02
100
AcDbEntity
  8
Sketch243
100
AcDbLine
 10
26.6175
 20
17.1299
 30
17.2041
 11
13.5234
 21
19.9121
 31
17.8073
  0
ARC
  5
AC7
330
A02
100
AcDbEntity
  8
Sketch243
100
AcDbCircle
 10
13.4605
 20
19.6191
 30
17.7941
 40
0.299711
100
AcDbArc
 50
77.8909
 51
168.004
  0
LINE
  5
AC8
330
A02
100
AcDbEntity
  8
Sketch243
100
AcDbLine
 10
9.17501
 20
1.07321
 30
16.9712
 11
6.36675
 21
-12.016
 31
16.3829
  0
ARC
  5
AC9
330
A02
100
AcDbEntity
  8
Sketch243
100
AcDbCircle
 10
6.6599
 20
-12.0783
 30
16.3694
 40
0.299696
100
AcDbArc
 50
168.004
 51
-102.109
  0
LINE
  5
ACA
330
A02
100
AcDbEntity
  8
Sketch243
100
AcDbLine
 10
6.59703
 20
-12.3713
 30
16.3562
 11
19.6911
 21
-15.1535
 31
15.7531
  0
ARC
  5
ACB
330
A02
100
AcDbEntity
  8
Sketch243
100
AcDbCircle
 10
19.754
 20
-14.8605
 30
15.7662
 40
0.299711
100
AcDbArc
 50
-102.109
 51
-11.9956
  0
LINE
  5
ACC
330
A02
100
AcDbEntity
  8
Sketch243
100
AcDbLine
 10
20.0472
 20
-14.9228
 30
15.7527
 11
22.8554
 21
-1.83356
 31
16.3411
  0
ARC
  5
ACD
330
A02
100
AcDbEntity
  8
Sketch243
100
AcDbCircle
 10
22.5623
 20
-1.77127
 30
16.3546
 40
0.299696
100
AcDbArc
 50
-11.9956
 51
77.8909
  0
LINE
  5
ACE
330
A02
100
AcDbEntity
  8
Sketch243
100
AcDbLine
 10
22.6251
 20
-1.47823
 30
16.3677
 11
9.53103
 21
1.30397
 31
16.9709
  0
ARC
  5
ACF
330
A02
100
AcDbEntity
  8
Sketch243
100
AcDbCircle
 10
9.46816
 20
1.01092
 30
16.9577
 40
0.299711
100
AcDbArc
 50
77.8909
 51
168.004
  0
LINE
  5
AD0
330
A02
100
AcDbEntity
  8
Sketch243
100
AcDbLine
 10
-34.3267
 20
-2.51472
 30
18.3022
 11
-34.3512
 21
-15.8964
 31
17.6013
  0
ARC
  5
AD1
330
A02
100
AcDbEntity
  8
Sketch243
100
AcDbCircle
 10
-34.0514
 20
-15.8964
 30
17.5908
 40
0.299817
100
AcDbArc
 50
180
 51
-90.1048
  0
LINE
  5
AD2
330
A02
100
AcDbEntity
  8
Sketch243
100
AcDbLine
 10
-34.0519
 20
-16.1959
 30
17.5751
 11
-20.6601
 21
-16.1959
 31
17.1075
  0
ARC
  5
AD3
330
A02
100
AcDbEntity
  8
Sketch243
100
AcDbCircle
 10
-20.6595
 20
-15.8964
 30
17.1232
 40
0.299589
100
AcDbArc
 50
-90.1048
 51
0
  0
LINE
  5
AD4
330
A02
100
AcDbEntity
  8
Sketch243
100
AcDbLine
 10
-20.3597
 20
-15.8964
 30
17.1127
 11
-20.3353
 21
-2.51472
 31
17.8136
  0
ARC
  5
AD5
330
A02
100
AcDbEntity
  8
Sketch243
100
AcDbCircle
 10
-20.6351
 20
-2.51472
 30
17.8241
 40
0.299817
100
AcDbArc
 50
-8.48665e-14
 51
89.8952
  0
LINE
  5
AD6
330
A02
100
AcDbEntity
  8
Sketch243
100
AcDbLine
 10
-20.6345
 20
-2.21513
 30
17.8397
 11
-34.0264
 21
-2.21513
 31
18.3074
  0
ARC
  5
AD7
330
A02
100
AcDbEntity
  8
Sketch243
100
AcDbCircle
 10
-34.0269
 20
-2.51472
 30
18.2917
 40
0.299589
100
AcDbArc
 50
89.8952
 51
180
  0
LINE
  5
AD8
330
A02
100
AcDbEntity
  8
Sketch243
100
AcDbLine
 10
-80.4686
 20
-18.6167
 30
19.0691
 11
-92.0788
 21
-25.307
 31
19.1237
  0
ARC
  5
AD9
330
A02
100
AcDbEntity
  8
Sketch243
100
AcDbCircle
 10
-92.2282
 20
-25.0475
 30
19.1425
 40
0.299998
100
AcDbArc
 50
-150.048
 51
-60.0622
  0
LINE
  5
ADA
330
A02
100
AcDbEntity
  8
Sketch243
100
AcDbLine
 10
-92.4881
 20
-25.1973
 30
19.1438
 11
-99.1624
 21
-13.6082
 31
19.9846
  0
ARC
  5
ADB
330
A02
100
AcDbEntity
  8
Sketch243
100
AcDbCircle
 10
-98.9024
 20
-13.4584
 30
19.9833
 40
0.299409
100
AcDbArc
 50
119.938
 51
-150.048
  0
LINE
  5
ADC
330
A02
100
AcDbEntity
  8
Sketch243
100
AcDbLine
 10
-99.0518
 20
-13.1989
 30
20.0022
 11
-87.4416
 21
-6.50863
 31
19.9476
  0
ARC
  5
ADD
330
A02
100
AcDbEntity
  8
Sketch243
100
AcDbCircle
 10
-87.2922
 20
-6.76809
 30
19.9287
 40
0.299998
100
AcDbArc
 50
29.9525
 51
119.938
  0
LINE
  5
ADE
330
A02
100
AcDbEntity
  8
Sketch243
100
AcDbLine
 10
-87.0323
 20
-6.6183
 30
19.9275
 11
-80.3581
 21
-18.2074
 31
19.0867
  0
ARC
  5
ADF
330
A02
100
AcDbEntity
  8
Sketch243
100
AcDbCircle
 10
-80.618
 20
-18.3572
 30
19.0879
 40
0.299409
100
AcDbArc
 50
-60.0622
 51
29.9525
  0
LINE
  5
AE0
330
A02
100
AcDbEntity
  8
Sketch243
100
AcDbLine
 10
31.4661
 20
51.4195
 30
18.8329
 11
32.1401
 21
52.7157
 31
18.8774
  0
ARC
  5
AE1
330
A02
100
AcDbEntity
  8
Sketch243
100
AcDbCircle
 10
31.2535
 20
53.1749
 30
18.9324
 40
0.998484
100
AcDbArc
 50
-27.3785
 51
63.7714
  0
ARC
  5
AE2
330
A02
100
AcDbEntity
  8
Sketch243
100
AcDbCircle
 10
-34.6266
 20
-80.5426
 30
14.2209
 40
150.065
100
AcDbArc
 50
63.7714
 51
83.7755
  0
ARC
  5
AE3
330
A02
100
AcDbEntity
  8
Sketch243
100
AcDbCircle
 10
-18.4751
 20
67.5453
 30
21.4226
 40
0.998833
100
AcDbArc
 50
83.7755
 51
174.958
  0
LINE
  5
AE4
330
A02
100
AcDbEntity
  8
Sketch243
100
AcDbLine
 10
-19.6144
 20
66.0378
 30
21.3833
 11
-19.4705
 21
67.6331
 31
21.4619
  0
ARC
  5
AE5
330
A02
100
AcDbEntity
  8
Sketch243
100
AcDbCircle
 10
-25.0888
 20
66.5207
 30
21.5998
 40
5.49626
100
AcDbArc
 50
177.839
 51
-5.04179
  0
LINE
  5
AE6
330
A02
100
AcDbEntity
  8
Sketch243
100
AcDbLine
 10
-30.5812
 20
66.7279
 30
21.8024
 11
-30.5178
 21
68.3284
 31
21.8842
  0
ARC
  5
AE7
330
A02
100
AcDbEntity
  8
Sketch243
100
AcDbCircle
 10
-31.5164
 20
68.366
 30
21.921
 40
0.999321
100
AcDbArc
 50
-2.16054
 51
88.8035
  0
ARC
  5
AE8
330
A02
100
AcDbEntity
  8
Sketch243
100
AcDbCircle
 10
-34.6266
 20
-80.5426
 30
14.2209
 40
149.94
100
AcDbArc
 50
88.8035
 51
101.699
  0
ARC
  5
AE9
330
A02
100
AcDbEntity
  8
Sketch243
100
AcDbCircle
 10
-64.8173
 20
65.2503
 30
22.9205
 40
0.998297
100
AcDbArc
 50
101.699
 51
-166.182
  0
LINE
  5
AEA
330
A02
100
AcDbEntity
  8
Sketch243
100
AcDbLine
 10
-65.2463
 20
62.7967
 30
22.8068
 11
-65.7882
 21
65.0116
 31
22.9419
  0
ARC
  5
AEB
330
A02
100
AcDbEntity
  8
Sketch243
100
AcDbCircle
 10
-70.5859
 20
61.4833
 30
22.9244
 40
5.49896
100
AcDbArc
 50
-164.355
 51
13.8184
  0
LINE
  5
AEC
330
A02
100
AcDbEntity
  8
Sketch243
100
AcDbLine
 10
-75.8812
 20
60.0004
 30
23.0316
 11
-76.5208
 21
62.2946
 31
23.1742
  0
ARC
  5
AED
330
A02
100
AcDbEntity
  8
Sketch243
100
AcDbCircle
 10
-77.4835
 20
62.025
 30
23.1937
 40
0.99981
100
AcDbArc
 50
15.6446
 51
106.731
  0
ARC
  5
AEE
330
A02
100
AcDbEntity
  8
Sketch243
100
AcDbCircle
 10
-34.6266
 20
-80.5426
 30
14.2209
 40
149.868
100
AcDbArc
 50
106.731
 51
117.405
  0
ARC
  5
AEF
330
A02
100
AcDbEntity
  8
Sketch243
100
AcDbCircle
 10
-103.138
 20
51.6012
 30
23.543
 40
0.998045
100
AcDbArc
 50
117.405
 51
180
  0
LINE
  5
AF0
330
A02
100
AcDbEntity
  8
Sketch243
100
AcDbLine
 10
-104.138
 20
51.6012
 30
23.5779
 11
-104.199
 21
18.3502
 31
21.8363
  0
ARC
  5
AF1
330
A02
100
AcDbEntity
  8
Sketch243
100
AcDbCircle
 10
-103.199
 20
18.3502
 30
21.8014
 40
0.999391
100
AcDbArc
 50
180
 51
-90
  0
LINE
  5
AF2
330
A02
100
AcDbEntity
  8
Sketch243
100
AcDbLine
 10
-103.199
 20
17.3515
 30
21.749
 11
-88.7692
 21
17.3779
 31
21.2465
  0
ARC
  5
AF3
330
A02
100
AcDbEntity
  8
Sketch243
100
AcDbCircle
 10
-88.7692
 20
16.3793
 30
21.1941
 40
0.999391
100
AcDbArc
 50
-0.00104364
 51
90
  0
LINE
  5
AF4
330
A02
100
AcDbEntity
  8
Sketch243
100
AcDbLine
 10
-87.7698
 20
16.3793
 30
21.1592
 11
-87.8067
 21
-3.56734
 31
20.1145
  0
ARC
  5
AF5
330
A02
100
AcDbEntity
  8
Sketch243
100
AcDbCircle
 10
-88.8061
 20
-3.56732
 30
20.1494
 40
0.998628
100
AcDbArc
 50
-90
 51
-0.00104364
  0
LINE
  5
AF6
330
A02
100
AcDbEntity
  8
Sketch243
100
AcDbLine
 10
-88.8061
 20
-4.56595
 30
20.0971
 11
-105.03
 21
-4.59557
 31
20.6621
  0
ARC
  5
AF7
330
A02
100
AcDbEntity
  8
Sketch243
100
AcDbCircle
 10
-105.03
 20
-5.5942
 30
20.6097
 40
0.998628
100
AcDbArc
 50
90
 51
-162.792
  0
ARC
  5
AF8
330
A02
100
AcDbEntity
  8
Sketch243
100
AcDbCircle
 10
-111.238
 20
-7.51687
 30
20.7257
 40
5.49984
100
AcDbArc
 50
-139.457
 51
17.208
  0
LINE
  5
AF9
330
A02
100
AcDbEntity
  8
Sketch243
100
AcDbLine
 10
-116.367
 20
-9.98358
 30
20.7754
 11
-115.418
 21
-11.0919
 31
20.6841
  0
ARC
  5
AFA
330
A02
100
AcDbEntity
  8
Sketch243
100
AcDbCircle
 10
-117.126
 20
-10.6336
 30
20.7679
 40
0.999971
100
AcDbArc
 50
40.5433
 51
132.343
  0
ARC
  5
AFB
330
A02
100
AcDbEntity
  8
Sketch243
100
AcDbCircle
 10
-60.9167
 20
-72.3142
 30
15.5705
 40
84.4489
100
AcDbArc
 50
132.343
 51
134.999
  0
LINE
  5
AFC
330
A02
100
AcDbEntity
  8
Sketch243
100
AcDbLine
 10
-120.632
 20
-12.597
 30
20.7873
 11
-129.501
 21
-21.452
 31
20.6327
  0
ARC
  5
AFD
330
A02
100
AcDbEntity
  8
Sketch243
100
AcDbCircle
 10
-128.795
 20
-22.1578
 30
20.571
 40
0.998097
100
AcDbArc
 50
134.999
 51
-135
  0
LINE
  5
AFE
330
A02
100
AcDbEntity
  8
Sketch243
100
AcDbLine
 10
-129.502
 20
-22.8648
 30
20.5586
 11
-103.352
 21
-48.9748
 31
18.2762
  0
ARC
  5
AFF
330
A02
100
AcDbEntity
  8
Sketch243
100
AcDbCircle
 10
-102.645
 20
-48.2678
 30
18.2886
 40
0.999923
100
AcDbArc
 50
-135
 51
-45.001
  0
LINE
  5
B00
330
A02
100
AcDbEntity
  8
Sketch243
100
AcDbLine
 10
-101.939
 20
-48.9736
 30
18.227
 11
-98.0841
 21
-45.1242
 31
18.2942
  0
ARC
  5
B01
330
A02
100
AcDbEntity
  8
Sketch243
100
AcDbCircle
 10
-44.9118
 20
-93.2038
 30
13.9161
 40
71.6811
100
AcDbArc
 50
132.356
 51
137.879
  0
ARC
  5
B02
330
A02
100
AcDbEntity
  8
Sketch243
100
AcDbCircle
 10
-93.8781
 20
-39.4957
 30
18.4425
 40
0.998066
100
AcDbArc
 50
-47.6442
 51
40.413
  0
LINE
  5
B03
330
A02
100
AcDbEntity
  8
Sketch243
100
AcDbLine
 10
-93.864
 20
-37.9706
 30
18.522
 11
-93.1167
 21
-38.8474
 31
18.4499
  0
ARC
  5
B04
330
A02
100
AcDbEntity
  8
Sketch243
100
AcDbCircle
 10
-89.6765
 20
-34.4051
 30
18.5627
 40
5.5
100
AcDbArc
 50
34.0598
 51
-139.587
  0
LINE
  5
B05
330
A02
100
AcDbEntity
  8
Sketch243
100
AcDbLine
 10
-84.4789
 20
-32.2731
 30
18.493
 11
-85.12
 21
-31.3248
 31
18.5651
  0
ARC
  5
B06
330
A02
100
AcDbEntity
  8
Sketch243
100
AcDbCircle
 10
-83.6504
 20
-31.713
 30
18.4934
 40
1
100
AcDbArc
 50
-145.94
 51
-57.7894
  0
ARC
  5
B07
330
A02
100
AcDbEntity
  8
Sketch243
100
AcDbCircle
 10
-44.9118
 20
-93.2038
 30
13.9161
 40
71.7217
100
AcDbArc
 50
89.8952
 51
122.211
  0
LINE
  5
B08
330
A02
100
AcDbEntity
  8
Sketch243
100
AcDbLine
 10
-44.7806
 20
-21.4822
 30
17.6726
 11
-16.7645
 21
-21.4822
 31
16.6942
  0
ARC
  5
B09
330
A02
100
AcDbEntity
  8
Sketch243
100
AcDbCircle
 10
-16.7626
 20
-20.4836
 30
16.7465
 40
0.998631
100
AcDbArc
 50
-90.1048
 51
46.353
  0
LINE
  5
B0A
330
A02
100
AcDbEntity
  8
Sketch243
100
AcDbLine
 10
-16.0725
 20
-19.7601
 30
16.7604
 11
-18.641
 21
-17.3143
 31
16.9783
  0
ARC
  5
B0B
330
A02
100
AcDbEntity
  8
Sketch243
100
AcDbCircle
 10
-14.8452
 20
-13.3348
 30
17.0545
 40
5.49947
100
AcDbArc
 50
46.353
 51
-133.647
  0
LINE
  5
B0C
330
A02
100
AcDbEntity
  8
Sketch243
100
AcDbLine
 10
-6.11816
 20
-14.051
 30
16.7122
 11
-11.0494
 21
-9.35534
 31
17.1306
  0
ARC
  5
B0D
330
A02
100
AcDbEntity
  8
Sketch243
100
AcDbCircle
 10
-5.42801
 20
-13.3275
 30
16.726
 40
0.999904
100
AcDbArc
 50
-133.647
 51
-102.807
  0
LINE
  5
B0E
330
A02
100
AcDbEntity
  8
Sketch243
100
AcDbLine
 10
-5.64946
 20
-14.3017
 30
16.6826
 11
22.9142
 21
-20.7353
 31
15.3478
  0
ARC
  5
B0F
330
A02
100
AcDbEntity
  8
Sketch243
100
AcDbCircle
 10
23.1356
 20
-19.7611
 30
15.3912
 40
0.99906
100
AcDbArc
 50
-102.807
 51
-12.0002
  0
LINE
  5
B10
330
A02
100
AcDbEntity
  8
Sketch243
100
AcDbLine
 10
37.421
 20
42.0366
 30
18.133
 11
24.1128
 21
-19.9688
 31
15.3461
  0
ARC
  5
B11
330
A02
100
AcDbEntity
  8
Sketch243
100
AcDbCircle
 10
36.4439
 20
42.2443
 30
18.178
 40
0.998986
100
AcDbArc
 50
-12.0002
 51
78.2888
  0
LINE
  5
B12
330
A02
100
AcDbEntity
  8
Sketch243
100
AcDbLine
 10
35.2273
 20
43.5138
 30
18.287
 11
36.6467
 21
43.2226
 31
18.2222
  0
ARC
  5
B13
330
A02
100
AcDbEntity
  8
Sketch243
100
AcDbCircle
 10
36.3426
 20
48.8941
 30
18.5302
 40
5.49166
100
AcDbArc
 50
152.622
 51
-101.711
  0
ENDSEC
  0
SECTION
  2
OBJECTS
  0
DICTIONARY
  5
F000
330
0
100
AcDbDictionary
  3
ACAD_GROUP
350
F001
  0
DICTIONARY
  5
F001
330
F000
100
AcDbDictionary
  0
ENDSEC
  0
EOF